<svg width="90" height="14" viewBox="0 0 90 14" fill="none" xmlns="http://www.w3.org/2000/svg">
<path d="M10.452 8.3535C10.3009 8.49991 10.2315 8.71166 10.2659 8.91933L10.7845 11.7893C10.8283 12.0326 10.7256 12.2787 10.522 12.4193C10.3225 12.5652 10.0571 12.5827 9.83953 12.466L7.25594 11.1185C7.16611 11.0707 7.06636 11.045 6.96428 11.0421H6.80619C6.75136 11.0502 6.69769 11.0677 6.64869 11.0946L4.06453 12.4485C3.93678 12.5127 3.79211 12.5354 3.65036 12.5127C3.30503 12.4473 3.07461 12.1183 3.13119 11.7712L3.65036 8.90125C3.68478 8.69183 3.61536 8.47891 3.46428 8.33016L1.35786 6.2885C1.18169 6.11758 1.12044 5.86091 1.20094 5.62933C1.27911 5.39833 1.47861 5.22975 1.71953 5.19183L4.61869 4.77125C4.83919 4.7485 5.03286 4.61433 5.13203 4.416L6.40953 1.79683C6.43986 1.7385 6.47894 1.68483 6.52619 1.63933L6.57869 1.5985C6.60611 1.56816 6.63761 1.54308 6.67261 1.52266L6.73619 1.49933L6.83536 1.4585H7.08094C7.30028 1.48125 7.49336 1.6125 7.59428 1.8085L8.88869 4.416C8.98203 4.60675 9.16344 4.73916 9.37286 4.77125L12.272 5.19183C12.517 5.22683 12.7218 5.396 12.8029 5.62933C12.8793 5.86325 12.8134 6.11991 12.6337 6.2885L10.452 8.3535Z" fill="#F6973F"/>
<path d="M29.452 8.3535C29.3009 8.49991 29.2315 8.71166 29.2659 8.91933L29.7845 11.7893C29.8283 12.0326 29.7256 12.2787 29.522 12.4193C29.3225 12.5652 29.0571 12.5827 28.8395 12.466L26.2559 11.1185C26.1661 11.0707 26.0664 11.045 25.9643 11.0421H25.8062C25.7514 11.0502 25.6977 11.0677 25.6487 11.0946L23.0645 12.4485C22.9368 12.5127 22.7921 12.5354 22.6504 12.5127C22.305 12.4473 22.0746 12.1183 22.1312 11.7712L22.6504 8.90125C22.6848 8.69183 22.6154 8.47891 22.4643 8.33016L20.3579 6.2885C20.1817 6.11758 20.1204 5.86091 20.2009 5.62933C20.2791 5.39833 20.4786 5.22975 20.7195 5.19183L23.6187 4.77125C23.8392 4.7485 24.0329 4.61433 24.132 4.416L25.4095 1.79683C25.4399 1.7385 25.4789 1.68483 25.5262 1.63933L25.5787 1.5985C25.6061 1.56816 25.6376 1.54308 25.6726 1.52266L25.7362 1.49933L25.8354 1.4585H26.0809C26.3003 1.48125 26.4934 1.6125 26.5943 1.8085L27.8887 4.416C27.982 4.60675 28.1634 4.73916 28.3729 4.77125L31.272 5.19183C31.517 5.22683 31.7218 5.396 31.8029 5.62933C31.8793 5.86325 31.8134 6.11991 31.6337 6.2885L29.452 8.3535Z" fill="#F6973F"/>
<path d="M48.452 8.3535C48.3009 8.49991 48.2315 8.71166 48.2659 8.91933L48.7845 11.7893C48.8283 12.0326 48.7256 12.2787 48.522 12.4193C48.3225 12.5652 48.0571 12.5827 47.8395 12.466L45.2559 11.1185C45.1661 11.0707 45.0664 11.045 44.9643 11.0421H44.8062C44.7514 11.0502 44.6977 11.0677 44.6487 11.0946L42.0645 12.4485C41.9368 12.5127 41.7921 12.5354 41.6504 12.5127C41.305 12.4473 41.0746 12.1183 41.1312 11.7712L41.6504 8.90125C41.6848 8.69183 41.6154 8.47891 41.4643 8.33016L39.3579 6.2885C39.1817 6.11758 39.1204 5.86091 39.2009 5.62933C39.2791 5.39833 39.4786 5.22975 39.7195 5.19183L42.6187 4.77125C42.8392 4.7485 43.0329 4.61433 43.132 4.416L44.4095 1.79683C44.4399 1.7385 44.4789 1.68483 44.5262 1.63933L44.5787 1.5985C44.6061 1.56816 44.6376 1.54308 44.6726 1.52266L44.7362 1.49933L44.8354 1.4585H45.0809C45.3003 1.48125 45.4934 1.6125 45.5943 1.8085L46.8887 4.416C46.982 4.60675 47.1634 4.73916 47.3729 4.77125L50.272 5.19183C50.517 5.22683 50.7218 5.396 50.8029 5.62933C50.8793 5.86325 50.8134 6.11991 50.6337 6.2885L48.452 8.3535Z" fill="#F6973F"/>
<path d="M67.452 8.3535C67.3009 8.49991 67.2315 8.71166 67.2659 8.91933L67.7845 11.7893C67.8283 12.0326 67.7256 12.2787 67.522 12.4193C67.3225 12.5652 67.0571 12.5827 66.8395 12.466L64.2559 11.1185C64.1661 11.0707 64.0664 11.045 63.9643 11.0421H63.8062C63.7514 11.0502 63.6977 11.0677 63.6487 11.0946L61.0645 12.4485C60.9368 12.5127 60.7921 12.5354 60.6504 12.5127C60.305 12.4473 60.0746 12.1183 60.1312 11.7712L60.6504 8.90125C60.6848 8.69183 60.6154 8.47891 60.4643 8.33016L58.3579 6.2885C58.1817 6.11758 58.1204 5.86091 58.2009 5.62933C58.2791 5.39833 58.4786 5.22975 58.7195 5.19183L61.6187 4.77125C61.8392 4.7485 62.0329 4.61433 62.132 4.416L63.4095 1.79683C63.4399 1.7385 63.4789 1.68483 63.5262 1.63933L63.5787 1.5985C63.6061 1.56816 63.6376 1.54308 63.6726 1.52266L63.7362 1.49933L63.8354 1.4585H64.0809C64.3003 1.48125 64.4934 1.6125 64.5943 1.8085L65.8887 4.416C65.982 4.60675 66.1634 4.73916 66.3729 4.77125L69.272 5.19183C69.517 5.22683 69.7218 5.396 69.8029 5.62933C69.8793 5.86325 69.8134 6.11991 69.6337 6.2885L67.452 8.3535Z" fill="#F6973F"/>
<path opacity="0.3" d="M86.452 8.3535C86.3009 8.49991 86.2315 8.71166 86.2659 8.91933L86.7845 11.7893C86.8283 12.0326 86.7256 12.2787 86.522 12.4193C86.3225 12.5652 86.0571 12.5827 85.8395 12.466L83.2559 11.1185C83.1661 11.0707 83.0664 11.045 82.9643 11.0421H82.8062C82.7514 11.0502 82.6977 11.0677 82.6487 11.0946L80.0645 12.4485C79.9368 12.5127 79.7921 12.5354 79.6504 12.5127C79.305 12.4473 79.0746 12.1183 79.1312 11.7712L79.6504 8.90125C79.6848 8.69183 79.6154 8.47891 79.4643 8.33016L77.3579 6.2885C77.1817 6.11758 77.1204 5.86091 77.2009 5.62933C77.2791 5.39833 77.4786 5.22975 77.7195 5.19183L80.6187 4.77125C80.8392 4.7485 81.0329 4.61433 81.132 4.416L82.4095 1.79683C82.4399 1.7385 82.4789 1.68483 82.5262 1.63933L82.5787 1.5985C82.6061 1.56816 82.6376 1.54308 82.6726 1.52266L82.7362 1.49933L82.8354 1.4585H83.0809C83.3003 1.48125 83.4934 1.6125 83.5943 1.8085L84.8887 4.416C84.982 4.60675 85.1634 4.73916 85.3729 4.77125L88.272 5.19183C88.517 5.22683 88.7218 5.396 88.8029 5.62933C88.8793 5.86325 88.8134 6.11991 88.6337 6.2885L86.452 8.3535Z" fill="#F6973F"/>
</svg>
